<?xml version="1.0" encoding="UTF-8"?>
<svg id="Layer_1" xmlns="http://www.w3.org/2000/svg" version="1.1" viewBox="0 0 2244 735">
  <!-- Generator: Adobe Illustrator 29.1.0, SVG Export Plug-In . SVG Version: 2.1.0 Build 142)  -->
  <defs>
    <style>
      .st0 {
        fill: red;
        fill-rule: evenodd;
      }

      .st1 {
        fill: #fff;
      }
    </style>
  </defs>
  <g>
    <path class="st0" d="M238.7,613.5c-.5-28.1,10.4-55.2,30.3-75.1l269.3-269.3c19.9-19.9,47-30.8,75.1-30.3,9.2.2,18.4-.7,27.5-2.7,22.4-4.8,42.8-16,59.1-32.3s20.2-24.7,26.2-39.5c5.8-14.3,8.7-29.4,8.7-44.9s-.2-7.7-.5-11.5l-62.8,62.8-99.8-7.5-7.5-99.8L627.2.5c-3.8-.3-7.7-.5-11.6-.5-15.5,0-30.6,2.9-44.9,8.7-14.8,6-28.1,14.8-39.5,26.2-16.3,16.3-27.4,36.7-32.3,59.1-2,9-2.9,18.3-2.7,27.5.5,28.1-10.4,55.3-30.3,75.1L196.7,466c-19.9,19.9-47,30.8-75.1,30.3-9.2-.2-18.4.7-27.5,2.7-22.4,4.8-42.8,16-59.1,32.3-11.4,11.4-20.2,24.7-26.2,39.5-5.8,14.3-8.7,29.4-8.7,44.9s.2,7.7.5,11.5l74.3-74.3,101.8,5.5,5.5,101.8-74.3,74.3c3.8.4,7.7.5,11.5.5,15.5,0,30.6-2.9,44.9-8.7,14.8-6,28.1-14.8,39.5-26.2,16.3-16.3,27.4-36.7,32.3-59.1,1.9-9,2.9-18.3,2.7-27.5h-.1Z"/>
    <path class="st0" d="M496.3,613.5c.5-28.1-10.4-55.2-30.3-75.1L196.7,269c-19.9-19.9-47-30.8-75.1-30.3-9.2.2-18.4-.7-27.5-2.7-22.4-4.8-42.8-16-59.1-32.3-11.4-11.4-20.2-24.7-26.2-39.5C2.9,150,0,134.9,0,119.3s.2-7.7.5-11.5l62.8,62.8,99.8-7.5,7.5-99.8L107.8.5c3.8-.3,7.7-.5,11.6-.5,15.5,0,30.6,2.9,44.9,8.7,14.8,6,28.1,14.8,39.5,26.2,16.3,16.3,27.4,36.7,32.3,59.1,2,9,2.9,18.3,2.7,27.5-.5,28.1,10.4,55.3,30.3,75.1l269.3,269.3c19.9,19.9,47,30.8,75.1,30.3,9.2-.2,18.4.7,27.5,2.7,22.4,4.8,42.8,16,59.1,32.3s20.2,24.7,26.2,39.5c5.8,14.3,8.7,29.4,8.7,44.9s-.2,7.7-.5,11.5l-74.3-74.3-101.8,5.5-5.5,101.8,74.3,74.3c-3.8.4-7.7.5-11.5.5-15.5,0-30.6-2.9-44.9-8.7-14.8-6-28.1-14.8-39.5-26.2-16.3-16.3-27.4-36.7-32.3-59.1-1.9-9-2.9-18.3-2.7-27.5h0Z"/>
  </g>
  <g>
    <path class="st1" d="M512.8,248.4l1.9-7.4h-43.2l8.2-33.8h132.3l-8.6,33.8h-28.8l-26.8,101.9h-33.1l-4.3-34.6c-14,20.2-35.8,37.7-70.8,37.7-59.5,0-94.9-45.1-94.9-106.6s50.2-161.8,141.6-161.8,56.8,11.7,70.8,32.7l17.5-31.9h35.4l-24.9,99.6h-42c-2.7-52.1-26.1-68.5-51.7-68.5-62.6,0-83.3,98.4-83.3,136.9s24.1,64.6,45.5,64.6c34.2,0,50.6-30.7,59.1-62.6h0Z"/>
    <path class="st1" d="M673.8,265.9v3.1c0,34.2,18.7,44.4,37.7,44.4s34.6-9.7,52.1-31.1l17.1,14c-20.6,26.5-46.3,47.5-88.3,47.5s-76.3-28-76.3-72.8,51-117.5,117.5-117.5,59.9,18.7,59.9,45.1-35.8,64.6-119.8,67.3h0ZM676.6,245.3c50.6-3.5,65.8-26.5,65.8-47.5s-5.8-19.8-16.3-19.8c-23.7,0-42.8,35-49.4,67.3h0Z"/>
    <path class="st1" d="M998.3,307.5c7,0,14.8-8.2,26.5-37.7l20.2,7c-15.6,44.7-39.3,66.9-67.7,66.9s-38.5-15.2-38.5-37c0-35,26.1-77,26.1-100.8s-4.3-11.3-11.3-11.3c-15.2,0-45.1,19.1-77.4,145.1h-57.2l33.1-124.5c5.8-22.6,3.9-26.5-1.6-26.5-7.8,0-16.7,15.2-27.2,38.5l-20.2-7.8c17.9-41.6,38.5-65.8,67.7-65.8s30.3,12.1,30.3,37-1.2,23.3-7,43.2l3.1,1.2c26.5-58.7,56.4-81.7,86.4-81.7s38.5,15.6,38.5,40.5-30.3,85.6-30.3,106.2,2.7,7.4,6.6,7.4h0Z"/>
    <path class="st1" d="M1115,265.9v3.1c0,34.2,18.7,44.4,37.7,44.4s34.6-9.7,52.1-31.1l17.1,14c-20.6,26.5-46.3,47.5-88.3,47.5s-76.3-28-76.3-72.8,51-117.5,117.5-117.5,59.9,18.7,59.9,45.1-35.8,64.6-119.8,67.3h.1ZM1117.7,245.3c50.6-3.5,65.8-26.5,65.8-47.5s-5.8-19.8-16.3-19.8c-23.7,0-42.8,35-49.4,67.3h0Z"/>
    <path class="st1" d="M1293.2,215.3c5.8-22.6,3.9-26.5-1.6-26.5-7.8,0-16.7,15.2-27.2,38.5l-20.2-7.8c17.9-41.6,38.5-65.8,67.7-65.8s30.3,12.1,30.3,37-1.2,22.2-6.2,39.7l3.5,1.2c21.8-51.4,39.7-78.2,69.6-78.2s33.5,14.4,33.5,34.6-14.4,38.9-33.1,38.9-28.8-10.1-27.6-30c-8.6,3.5-33.8,23-64.6,142.8h-57.2l33.1-124.5h0Z"/>
    <path class="st1" d="M1612.2,279.5c-1.9,8.6-3.1,14-3.1,18.7s3.5,9.3,7.8,9.3c8.2,0,15.6-8.9,25.7-37.7l19.8,7c-14.8,45.9-36.6,66.9-65,66.9s-36.6-12.1-36.6-36.2.4-6.2.8-9.7l-3.1-1.2c-15.2,31.9-36.6,47.1-61.1,47.1-37.3,0-55.6-29.6-55.6-63.8s17.5-78.6,38.5-100c17.5-17.1,35-26.5,57.2-26.5s37.7,17.1,42,35.8l8.9-31.9h56l-32.3,122.2h0ZM1571.4,213c0-19.5-6.6-29.2-19.5-29.2-29.6,0-51,62.6-51,95.3s8.2,28.8,19.1,28.8c28.8,0,51.4-63,51.4-94.9Z"/>
    <path class="st1" d="M1683,266.3l43.2-161.8h-28.4l8.6-33.1h85.2l-54.1,195.3c-2.3,8.2-8.2,26.5-8.2,33.1s3.5,7.8,7,7.8c7.8,0,15.2-8.2,27.2-37.7l20.2,7c-15.6,44.7-38.5,66.9-67.7,66.9s-40.1-13.6-40.1-38.1,2.7-23,7-39.3h.1Z"/>
    <path class="st1" d="M184,588.8h31.1l47.1-188.3h-31.9l8.6-33.8h113.6l14,160.3h1.6l90.6-160.3h119.1l-8.2,33.8h-33.5l-46.7,188.3h33.5l-8.2,33.8h-123.7l8.2-33.8h29.6l44.7-180.1h-3.9l-124.5,214.4h-26.1l-21-214.4h-3.5l-44.7,180.1h31.1l-8.6,33.8h-96.5l8.2-33.8h0Z"/>
    <path class="st1" d="M745.8,512.9c0,61.9-52.1,113.6-109.3,113.6s-80.1-31.5-80.1-76.3,52.1-114,109.3-114,80.1,31.9,80.1,76.6h0ZM666.5,461.2c-33.8,0-52.5,77.4-52.5,110.1s9.7,30.7,21.4,30.7c34.2,0,52.9-77.4,52.9-110.1s-9.7-30.7-21.8-30.7h0Z"/>
    <path class="st1" d="M855.9,472.9l-21.8,80.9c-1.9,7.4-3.1,15.2-3.1,19.5,0,11.7,6.2,15.6,14,15.6,14,0,24.1-14.8,34.2-40.5l21,6.6c-17.9,54.9-47.9,71.6-76.3,71.6s-49.8-13.2-49.8-44.4,2.7-23.7,5.8-35.4l20.2-73.9h-33.1l7-27.6h33.5l12.4-45.5,57.2-6.6-14,52.1h56.8l-7.4,27.6h-56.8.2Z"/>
    <path class="st1" d="M1107.2,512.9c0,61.9-52.1,113.6-109.3,113.6s-80.1-31.5-80.1-76.3,52.1-114,109.3-114,80.1,31.9,80.1,76.6h0ZM1027.9,461.2c-33.8,0-52.5,77.4-52.5,110.1s9.7,30.7,21.4,30.7c34.2,0,52.9-77.4,52.9-110.1s-9.7-30.7-21.8-30.7h0Z"/>
    <path class="st1" d="M1276.1,588.8h37.3l-8.6,33.8h-132.3l8.6-33.8h34.2l47.1-188.3h-34.6l8.2-33.8h112.8c75.1,0,101.5,26.8,101.5,66.9s-30,89.9-125.3,89.9h-32.7l-16.3,65.4h.1ZM1324.3,491.1c46.7,0,59.9-34.2,59.9-59.5s-14-32.7-45.9-32.7h-14.8l-23,92.2h23.8Z"/>
    <path class="st1" d="M1498.2,548.7v3.1c0,34.2,18.7,44.4,37.7,44.4s34.6-9.7,52.1-31.1l17.1,14c-20.6,26.5-46.3,47.5-88.3,47.5s-76.3-28-76.3-72.8,51-117.5,117.5-117.5,59.9,18.7,59.9,45.1-35.8,64.6-119.8,67.3h.1ZM1501,528.1c50.6-3.5,65.8-26.5,65.8-47.5s-5.8-19.8-16.3-19.8c-23.7,0-42.8,35-49.4,67.3h0Z"/>
    <path class="st1" d="M1678,695.4c10.9,0,17.5-4.3,17.5-12.1s-13.2-14.8-35.4-13.2l-5.4-15.2,39.3-29.2c-38.5-5.1-62.6-32.3-62.6-72.4,0-63.4,53.3-117.1,112.8-117.1s61.9,17.9,61.9,51.4-13.6,38.1-32.7,38.1-25.7-10.1-25.7-24.1,10.1-23.3,19.5-27.6c-2.7-7-9.3-11.7-20.6-11.7-34.2,0-56.8,49.4-56.8,87.9s19.1,43.6,34.6,43.6,35-10.9,50.6-33.1l17.9,14.4c-15.2,21.8-35.4,44-66.9,49.8l-25.3,20.6.4,1.6c22.6,4.7,35.8,16.3,35.8,32.7s-20.6,39.7-54.5,39.7-37.7-5.4-52.5-16l13.2-18.7c9.3,5.8,21.8,10.5,35,10.5h-.1Z"/>
    <path class="st1" d="M1990,562.3c-1.9,8.6-3.1,14-3.1,18.7s3.5,9.3,7.8,9.3c8.2,0,15.6-8.9,25.7-37.7l19.8,7c-14.8,45.9-36.6,66.9-65,66.9s-36.6-12.1-36.6-36.2.4-6.2.8-9.7l-3.1-1.2c-15.2,31.9-36.6,47.1-61.1,47.1-37.3,0-55.6-29.6-55.6-63.8s17.5-78.6,38.5-100c17.5-17.1,35-26.5,57.2-26.5s37.7,17.1,42,35.8l8.9-31.9h56l-32.3,122.2h0ZM1949.1,495.8c0-19.5-6.6-29.2-19.5-29.2-29.6,0-51,62.6-51,95.3s8.2,28.8,19.1,28.8c28.8,0,51.4-63,51.4-94.9h0Z"/>
    <path class="st1" d="M2123.8,626.5c-44.7,0-80.1-18.3-80.1-46.3s12.4-30,28.8-30,26.8,12.5,26.8,24.9-3.1,16-8.6,21.8c5.4,3.9,15.6,7.8,29.6,7.8,20.2,0,30.3-10.1,30.3-24.9s-16.7-22.2-35-30.7c-25.3-12.1-49-24.1-49-51.4,0-40.9,41.2-61.5,80.1-61.5s72.8,19.8,72.8,44-12.1,28.4-27.6,28.4-27.6-12.5-27.6-23.7,3.1-16,7.8-20.6c-3.1-2.7-12.1-5.8-22.6-5.8-18.7,0-30.3,10.1-30.3,23.7s18.3,22.6,42,34.2c19.8,10.1,43.2,21.4,43.2,49,0,41.6-38.5,61.1-80.5,61.1h0Z"/>
  </g>
</svg>