<?xml version="1.0" encoding="UTF-8"?>
<svg id="Layer_1" xmlns="http://www.w3.org/2000/svg" version="1.1" viewBox="0 0 2244 735">
  <!-- Generator: Adobe Illustrator 29.5.1, SVG Export Plug-In . SVG Version: 2.1.0 Build 141)  -->
  <defs>
    <style>
      .st0 {
        fill: red;
      }

      .st0, .st1 {
        fill-rule: evenodd;
      }

      .st1 {
        fill: #fff;
      }
    </style>
  </defs>
  <g>
    <path class="st1" d="M1928.98,235.99l63.93-179.27h-60.67l-63.59,179.27c-1.26,3.77-1.89,7.14-1.89,10.11,0,11.54,8.45,17.31,25.37,17.31h65.98c8.23,0,15.94-1.71,23.14-5.14,10.28-4.8,16.85-12.22,19.71-22.28h-71.98Z"/>
    <path class="st1" d="M1829.74,146.87h-97.86c-24.45,0-44.96,6.28-61.53,18.85-18.28,13.83-27.42,32.68-27.42,56.56,0,4.92.58,9.49,1.72,13.71h-69.25l31.19-89.12h-94.78l14.4-41.82h-27.76c-14.05,0-26.17,2.97-36.33,8.91-12.23,7.2-18.34,17.37-18.34,30.51,0,7.2,2.2,13.57,6.6,19.11,4.4,5.54,10.14,9.11,17.22,10.71l-22.45,61.7h-131.28c-14.85,0-22.28-4.63-22.28-13.88,0-1.94.4-4.11,1.2-6.51l14.05-41.3h36.16l-18.51,36.85h56.73c12.34-8.11,18.22-18.28,17.65-30.51-.69-12.11-8.34-21.14-22.97-27.08-10.97-4.46-23.71-6.68-38.22-6.68h-24.85c-22.51,0-41.93,5.26-58.27,15.77-18.97,12.23-28.45,29.08-28.45,50.56,0,8.74,1.91,16.33,5.7,22.79h-67.74l22.11-61.7c1.83-5.25,2.74-10,2.74-14.22,0-11.42-5.6-17.37-16.8-17.82-16.57-.46-31.94,5.09-46.1,16.62l-52.27,42.85,19.37-54.84h-61.87l-31.32,89.12h-133.21c-14.86,0-22.28-4.63-22.28-13.88,0-1.94.4-4.11,1.2-6.51l14.05-41.3h36.16l-18.51,36.85h56.73c12.34-8.11,18.22-18.28,17.65-30.51-.69-12.11-8.34-21.14-22.97-27.08-10.97-4.46-23.71-6.68-38.22-6.68h-24.85c-22.51,0-41.93,5.26-58.27,15.77-18.97,12.23-28.45,29.08-28.45,50.56,0,33.48,27.76,50.22,83.29,50.22h95.46c9.83,0,18.57-2.23,26.22-6.68,5.85-3.43,10.26-7.75,13.24-12.94l-6.9,19.62h31.53c8.91,0,20.28-4.8,34.11-14.4l58.96-49.87-13.03,36.85c-1.6,4.57-2.4,8.57-2.4,12,0,10.28,7.83,15.42,23.48,15.42h68.38c8.23,0,15.94-1.71,23.14-5.14,9.33-4.41,15.63-11.03,18.9-19.87,11.54,16.67,36.87,25.01,76.05,25.01h95.46c9.83,0,18.57-2.23,26.22-6.68,8.57-5.03,14.05-11.94,16.45-20.74h15.77c10.63,0,17.54-4.17,20.74-12.51l19.02-49.19h36.51l-19.37,55.7c-1.49,4.23-2.23,8.17-2.23,11.83,0,14.4,8.68,21.59,26.05,21.59h65.64c8.45,0,16.57-2.4,24.34-7.2,6.77-4.22,10.91-9.2,12.47-14.91,2.08,4.95,5.05,9.35,8.95,13.2,8.34,8.23,19.2,12.34,32.56,12.34,18.17,0,33.48-7.08,45.93-21.25,0,11.88,9.25,17.82,27.76,17.82h64.96c22.51,0,36.5-9.14,41.99-27.42h-71.12l32.22-89.12ZM1736.34,235.99c-19.43,0-29.14-4.97-29.14-14.91,0-2.06.34-4.34,1.03-6.86l12-39.93h37.88l-21.77,61.7Z"/>
  </g>
  <path class="st0" d="M782,132.1l-82.9,63.9-1,70-54-25.9s-40.41,27-153.1,27-226.9-39.92-226.9-127S386.14,0,491.1,0s162.9,37,162.9,37l39.1-22.9-.1,106s-73.69-75-191.9-75c-69.67,0-95.1,53.55-95.1,92s30.71,84.9,84,84.9c86.57,0,94.1-27,94.1-27l-96-61.9,293.9-1Z"/>
  <path class="st1" d="M839.82,548.46c-25.3,0-45.53,5.23-60.71,15.7-14.26,9.89-22.88,23.52-25.87,40.88-.57,3.1-.86,6.21-.86,9.31,0,8.91,2.08,16.84,6.24,23.8h-90.92l21.56-62.09h11.38c21.84,0,36.33-9.2,43.46-27.6h-44.5l24.32-69.16h-33.63c-12.53,23.8-24.32,40.24-35.36,49.33-9.78,8.05-24.72,14.66-44.84,19.83h-128.84c-25.3,0-45.53,5.23-60.71,15.7-14.26,9.89-22.88,23.52-25.87,40.88-.57,3.1-.86,6.21-.86,9.31,0,8.91,2.08,16.84,6.24,23.8h-75.57l41.22-108.83c2.3-5.98,3.45-11.44,3.45-16.39,0-8.62-3.45-15.18-10.35-19.66-4.48-2.99-8.74-4.48-12.76-4.48-10.12-.11-17.88,1.38-23.28,4.48-3.1,1.96-9.37,7.65-18.8,17.08l-66.4,66.75,33.46-86.93c2.53-6.32,3.79-12.01,3.79-17.07,0-8.16-3.16-14.32-9.49-18.46-4.14-2.64-8.11-3.97-11.9-3.97-13.34,0-24.21,2.65-32.6,7.93-5.06,3.22-12.3,10.23-21.73,21.04l-74.16,83.99,37.08-106.93c2.18-6.32,3.28-11.73,3.28-16.21,0-11.61-7.93-17.42-23.8-17.42H26.27L.23,466.53h95.72l-69.68,199.21h35.01c13.8,0,24.26-4.37,31.39-13.11l106.42-128.49-42.43,109.52c-2.07,5.17-3.1,10-3.1,14.49,0,11.62,6.55,18.17,19.66,19.66,2.3.34,4.48.52,6.55.52,10.92,0,20.98-5.11,30.18-15.35l85.55-93.83-28.63,74.51c-2.41,6.33-3.62,11.44-3.62,15.35,0,11.15,9.66,16.73,28.98,16.73h61.92c26.03,0,41.8-8.47,47.3-25.41,3.04,4.47,7,8.51,11.86,12.13,14.6,10.92,35.47,16.27,62.61,16.04,23.34-.12,42.31-5.4,56.91-15.87,15.29-10.92,23.74-25.98,25.35-45.19.46-4.94-.52-10.78-2.93-17.51-2.41-6.73-5.52-11.35-9.31-13.88h81.58l-21.9,62.09c-1.26,3.45-1.9,6.67-1.9,9.66,0,11.96,8.51,17.94,25.53,17.94h87.96c22.57,0,36.76-8.6,42.55-25.81,3.08,4.63,7.11,8.81,12.12,12.53,14.6,10.92,35.47,16.27,62.61,16.04,23.34-.12,42.31-5.4,56.92-15.87,15.29-10.92,23.74-25.98,25.35-45.19.46-4.94-.52-10.78-2.93-17.51-2.41-6.73-5.52-11.35-9.31-13.88h107.97c23,0,36.79-9.2,41.39-27.6h-214.04ZM484.36,641.42c-1.61.12-3.51.17-5.69.17-18.4,0-27.59-4.94-27.59-14.83,0-2.07.4-4.25,1.21-6.55l15.52-44.15h39.5l-22.94,65.37ZM842.93,641.42c-1.61.12-3.51.17-5.69.17-18.4,0-27.6-4.94-27.6-14.83,0-2.07.4-4.25,1.21-6.55l15.52-44.15h39.5l-22.94,65.37Z"/>
  <g>
    <path class="st1" d="M2174.41,638.14c7.82-7.01,11.73-15.46,11.73-25.35,0-8.97-2.65-20.7-7.93-35.18-4.37-11.27-8.68-22.54-12.94-33.8,4.94-7.01,7.42-14.66,7.42-22.94,0-14.14-9.55-22.82-28.63-26.04l-42.43,45.19c.11,5.41.92,10.23,2.42,14.49.8,2.3,2.24,5.23,4.31,8.8l-45.88,42.43h34.49l19.49-17.77c4.94,13.91,7.42,22.83,7.42,26.73,0,7.82-3.05,15.52-9.14,23.11-21.27-13.34-38.12-20.18-50.53-20.52-7.13-.11-13.45,1.5-18.97,4.83-6.44,3.79-10.12,9.14-11.04,16.04h-70.54l32.42-89.68h-98.48c-24.61,0-45.25,6.33-61.92,18.97-18.4,13.91-27.59,32.89-27.59,56.92,0,4.95.58,9.55,1.74,13.8h-127.47c-15.98,0-23.97-5.06-23.97-15.18,0-2.64.57-5.58,1.72-8.8l13.45-38.12h20.87v4.14c-.12,9.2,3.25,16.99,10.09,23.37,6.84,6.38,15.15,9.57,24.92,9.57s17.96-3.16,24.92-9.49c6.95-6.32,10.43-14.03,10.43-23.11s-3.45-16.56-10.35-22.77-15.24-9.31-25.01-9.31h-43.46c-22.88,0-42.72,5.12-59.5,15.35-19.09,11.61-29.78,27.71-32.08,48.29-.23,1.96-.35,3.85-.35,5.69,0,7.66,1.77,14.44,5.26,20.35h-133.75c-14.95,0-22.42-4.66-22.42-13.97,0-1.95.4-4.14,1.21-6.55l14.14-41.57h36.39l-18.63,37.08h57.09c12.42-8.16,18.34-18.4,17.76-30.7-.69-12.19-8.39-21.27-23.11-27.25-11.04-4.48-23.86-6.73-38.46-6.73h-25.01c-22.65,0-42.2,5.29-58.64,15.87-19.09,12.3-28.63,29.26-28.63,50.88,0,33.69,27.94,50.53,83.82,50.53h96.07c9.89,0,18.68-2.24,26.39-6.73,8.35-4.9,13.78-11.57,16.31-20.02,4.24,6.75,10.81,12.34,19.74,16.75,13.45,6.67,30.07,10,49.84,10h14.56l-12.83,10.18-6.04,15.18h19.14c3.45-.12,6.21.8,8.28,2.76,2.07,1.95,2.93,4.54,2.59,7.76-.12,1.49-.63,2.53-1.55,3.11-.46.34-1.78.97-3.97,1.9h-27.94c-24.49,0-38.63,9.2-42.43,27.6h59.68c14.72,0,25.87-3.57,33.46-10.69,6.44-6.1,9.66-14.2,9.66-24.32,0-17.25-11.04-25.87-33.11-25.87l10.19-7.59h74.15c9.77,0,18.34-2.24,25.7-6.73,5.93-3.64,10.36-8.38,13.29-14.21,2.05,4.45,4.86,8.44,8.44,11.97,8.39,8.28,19.32,12.42,32.77,12.42,18.28,0,33.69-7.13,46.22-21.39,0,11.96,9.31,17.94,27.94,17.94h65.37c20.98,0,34.6-7.9,40.89-23.68,0,.19-.01.38-.01.57,0,15.41,12.59,23.11,37.77,23.11h131.08c9.89,0,19-2.67,27.34-8.02,8.34-5.35,12.73-11.87,13.19-19.58h-68.82ZM1902.08,638.14c-19.55,0-29.32-5-29.32-15.01,0-2.07.34-4.37,1.03-6.9l12.07-40.18h38.12l-21.9,62.09Z"/>
    <path class="st1" d="M1411.57,480.68c0-22.88-9.72-38.86-29.15-47.95-13.69-6.44-33.52-9.66-59.5-9.66h-177.65l-26.91,43.46h176.27c14.37,0,24.32,1.21,29.84,3.62,9.2,4.03,13.51,12.48,12.94,25.35-.92,20.01-13.4,37.54-37.43,52.6-17.25,10.69-37.03,18.57-59.33,23.63l29.66-82.96h-62.43l-62.95,176.96h62.95l21.04-60.02c43.35-8.51,80.72-20.98,112.11-37.43,47.03-24.38,70.54-53.58,70.54-87.62Z"/>
  </g>
</svg>